<svg width="57" height="46" viewBox="0 0 57 46" fill="none" xmlns="http://www.w3.org/2000/svg">
<mask id="mask0_159_1082" style="mask-type:luminance" maskUnits="userSpaceOnUse" x="0" y="0" width="57" height="46">
<path d="M56.9999 0.845764H0.559082V45.1091H56.9999V0.845764Z" fill="white"/>
</mask>
<g mask="url(#mask0_159_1082)">
<path d="M34.735 0.845764H22.821C21.4487 0.845764 20.1982 1.62821 19.6029 2.85816L13.512 15.4421C12.7498 17.0161 13.9019 18.8416 15.6582 18.8416H23.8778C25.021 18.8416 26.0631 18.1894 26.56 17.164L28.7778 12.5822L40.1411 36.055L24.7889 24.9943C24.1785 24.5558 23.4461 24.3184 22.6931 24.3184H11.455C10.0824 24.3184 8.83217 25.101 8.23689 26.3309L0.797238 41.7098C0.0351162 43.2835 1.18721 45.1094 2.94364 45.1094H11.1632C12.3064 45.1094 13.3481 44.4572 13.8453 43.4317L19.8858 30.9545L36.527 43.559C37.8547 44.5639 39.4742 45.1094 41.1413 45.1094H54.6151C56.3717 45.1094 57.5239 43.2835 56.7616 41.7098L37.953 2.85816C37.3578 1.62821 36.1072 0.845764 34.735 0.845764Z" fill="white"/>
</g>
</svg>
