<svg width="56" height="56" viewBox="0 0 56 56" fill="none" xmlns="http://www.w3.org/2000/svg">
<g clip-path="url(#clip0_159_1071)">
<path fill-rule="evenodd" clip-rule="evenodd" d="M55.9813 28C55.9813 43.4436 43.4538 55.9628 27.9999 55.9628C12.5462 55.9628 0.0185547 43.4436 0.0185547 28C0.0185547 12.5566 12.5462 0.0372314 27.9999 0.0372314C43.4538 0.0372314 55.9813 12.5566 55.9813 28ZM20.0708 39.1278H14.6404C13.4993 39.1278 12.9357 39.1278 12.592 38.9081C12.2208 38.6675 11.9939 38.2691 11.9665 37.8294C11.9458 37.4243 12.2277 36.9295 12.7913 35.9403L26.1997 12.322C26.7702 11.3191 27.0589 10.8176 27.4232 10.6322C27.815 10.433 28.2825 10.433 28.6743 10.6322C29.0386 10.8176 29.3273 11.3191 29.8978 12.322L32.6543 17.1306L32.6683 17.1551C33.2846 18.2311 33.5971 18.7767 33.7335 19.3494C33.8847 19.9745 33.8847 20.6339 33.7335 21.2591C33.596 21.8361 33.2867 22.3857 32.6612 23.4779L25.6181 35.9198L25.5999 35.9516C24.9796 37.0364 24.6652 37.5863 24.2296 38.0011C23.7553 38.4546 23.1847 38.7841 22.5592 38.9699C21.9886 39.1278 21.3494 39.1278 20.0708 39.1278ZM33.7844 39.1278H41.5655C42.7134 39.1278 43.2909 39.1278 43.6348 38.9014C44.0059 38.6609 44.2396 38.2554 44.2604 37.816C44.2802 37.4239 44.0045 36.9485 43.4642 36.0167C43.4456 35.985 43.4269 35.9527 43.4079 35.9199L39.5103 29.2566L39.466 29.1816C38.9182 28.2561 38.6418 27.7887 38.2867 27.608C37.8951 27.4088 37.4342 27.4088 37.0426 27.608C36.6851 27.7935 36.3965 28.2812 35.8259 29.2635L31.9421 35.9268L31.9288 35.9497C31.3603 36.9305 31.0762 37.4206 31.0967 37.8227C31.1242 38.2624 31.351 38.6675 31.7222 38.9081C32.059 39.1278 32.6364 39.1278 33.7844 39.1278Z" fill="white"/>
</g>
<defs>
<clipPath id="clip0_159_1071">
<rect width="56" height="56" fill="white"/>
</clipPath>
</defs>
</svg>
