<svg width="78" height="78" viewBox="0 0 78 78" fill="none" xmlns="http://www.w3.org/2000/svg">
<mask id="mask0_159_1074" style="mask-type:alpha" maskUnits="userSpaceOnUse" x="6" y="22" width="65" height="32">
<path d="M32.9725 49.0932C27.1433 54.9222 17.8026 55.0992 11.7602 49.6241L16.6694 44.7148L25.3531 36.0313L26.9858 37.6639L18.6859 45.9639C21.7867 47.3231 25.5359 46.7335 28.0744 44.1951C31.3806 40.8887 31.3806 35.528 28.0744 32.2216C24.7679 28.9151 19.4072 28.9151 16.1008 32.2216C13.1662 35.1562 12.8362 39.7093 15.111 43.0079L10.1678 47.951C5.2134 41.9042 5.55829 32.9675 11.2026 27.3232C17.2142 21.3116 26.9608 21.3116 32.9725 27.3232C38.984 33.3349 38.984 43.0815 32.9725 49.0932Z" fill="#FF3CD4"/>
<path d="M54.865 53.151C63.1088 53.151 69.8389 46.6711 70.2398 38.5271H51.0167V40.8361H62.7544C61.5228 43.9897 58.4551 46.2239 54.8653 46.2239C50.1892 46.2239 46.3986 42.4333 46.3986 37.7572C46.3986 33.0814 50.1892 29.2908 54.8653 29.2908C59.0154 29.2908 62.4682 32.2769 63.192 36.218H70.1829C69.4104 28.4391 62.8473 22.3636 54.865 22.3636C46.3635 22.3636 39.4714 29.2555 39.4714 37.7572C39.4714 46.259 46.3635 53.151 54.865 53.151Z" fill="#FF3CD4"/>
</mask>
<g mask="url(#mask0_159_1074)">
<path d="M5.72021 21.84H72.8002V54.08H5.72021V21.84Z" fill="#FDFDFD"/>
</g>
</svg>
