<svg width="93" height="25" viewBox="0 0 93 25" fill="none" xmlns="http://www.w3.org/2000/svg">
<g clip-path="url(#clip0_159_1092)">
<path d="M0 0.444458H20.6666V4.87301H12.9411L7.90123 15.2063H2.97401L8.0139 4.87301H0V0.444458Z" fill="white"/>
<path d="M7.04126 24.0635L12.8012 12.254H17.7283L11.9685 24.0635H7.04126Z" fill="white"/>
<path fill-rule="evenodd" clip-rule="evenodd" d="M28.4167 24.0635C30.5853 24.0635 32.5458 23.0457 33.9524 21.4051V24.0635H38.3811V6.34924H33.9524V9.00767C32.5458 7.36713 30.5853 6.34924 28.4167 6.34924C24.1366 6.34924 20.6667 10.3147 20.6667 15.2063C20.6667 20.098 24.1366 24.0635 28.4167 24.0635ZM29.5239 20.004C32.1735 20.004 34.3216 17.856 34.3216 15.2063C34.3216 12.5568 32.1735 10.4088 29.5239 10.4088C26.8742 10.4088 24.7263 12.5568 24.7263 15.2063C24.7263 17.856 26.8742 20.004 29.5239 20.004Z" fill="white"/>
<path d="M90.4166 6.34924C90.9221 6.34924 91.4158 6.41023 91.8928 6.52641V10.9173C91.421 10.8263 90.9264 10.7778 90.4166 10.7778C87.1555 10.7778 85.5135 12.623 84.8809 14.8373C84.5646 15.9445 84.5118 16.6826 84.5118 19.635V24.0635H80.0833V6.34924H84.5118V9.89123C85.8584 7.74042 88.0021 6.34924 90.4166 6.34924Z" fill="white"/>
<path d="M46.8692 0.444458H42.4407V24.0635H46.8692V19.3363L48.2587 17.895L54.2502 24.0635H59.4132L50.8626 15.194L59.4168 6.34922H54.2633L46.8692 14.019V0.444458Z" fill="white"/>
<path fill-rule="evenodd" clip-rule="evenodd" d="M68.2638 5.98016C66.5624 5.98016 65.031 6.38135 63.666 7.18144C62.3215 7.98259 61.2531 9.07532 60.4591 10.4618C59.6675 11.8225 59.2693 13.3921 59.2693 15.1734C59.2693 15.5613 59.289 15.9413 59.3285 16.3135C59.4679 17.586 59.8454 18.7658 60.4601 19.8544C61.2544 21.2611 62.3657 22.3751 63.7966 23.1981C65.2475 24.0194 66.9401 24.4326 68.8794 24.4326C70.1336 24.4326 71.2937 24.2477 72.3608 23.8796C73.43 23.5109 74.3479 23.0023 75.117 22.3554C75.8446 21.7432 76.3871 21.0464 76.7478 20.2652L73.2333 18.6357C72.8324 19.2866 72.283 19.8154 71.5879 20.2216L71.5849 20.2235C70.8419 20.6349 69.9495 20.8368 68.914 20.8368C68.8682 20.8368 68.8226 20.8364 68.7772 20.8356C68.7396 20.8362 68.7018 20.8367 68.6638 20.8368L68.6335 20.8369C67.6024 20.8369 66.6906 20.6003 65.9029 20.1224C65.1161 19.645 64.5247 18.9844 64.1312 18.1433L64.1305 18.1419C63.8971 17.6292 63.7499 17.0739 63.6881 16.4767L63.6712 16.3135L63.6708 16.3109H76.792C76.9671 15.3984 77.0089 14.3501 76.9704 13.5679C76.8874 12.7622 76.7064 11.995 76.4281 11.2659L76.4271 11.2633C76.0531 10.2261 75.4925 9.30825 74.7446 8.50876C73.9987 7.71126 73.0871 7.09581 72.0078 6.66305L72.0055 6.66211C70.9286 6.20881 69.6824 5.98016 68.2638 5.98016ZM65.7646 10.0286C66.4854 9.54937 67.3202 9.31176 68.2638 9.31176C69.2288 9.31176 70.0648 9.54894 70.7648 10.0298C71.4639 10.4881 71.9649 11.1302 72.2667 11.9506C72.3826 12.2575 72.4591 12.582 72.4964 12.9234C72.507 12.991 72.5139 13.0614 72.5169 13.1352C72.5178 13.1569 72.5186 13.1771 72.5192 13.1964L72.5226 13.2434H72.5205C72.5226 13.3318 72.5213 13.4047 72.5169 13.5118C72.2148 13.5118 64.4474 13.5118 63.748 13.5088C63.7528 13.4279 63.7681 13.3223 63.7808 13.2434H63.7789L63.7884 13.1975L63.7959 13.1553L63.8 13.1322L63.8023 13.1313L63.8168 13.0621C63.8924 12.7007 63.9962 12.3613 64.1286 12.0443C64.4973 11.1616 65.042 10.487 65.7646 10.0286Z" fill="white"/>
</g>
<defs>
<clipPath id="clip0_159_1092">
<rect width="93" height="24.1111" fill="white" transform="translate(0 0.444458)"/>
</clipPath>
</defs>
</svg>
